# xmcd
#
# Track frame offsets: 
#        150
#        11505
#        25220
#        35217
#        47937
#        58772
#        72525
#        85420
#        95892
#        108375
#        121827
#        132805
#        144370
#        155810
#        166385
#        177640
#        190047
#        200007
#        210872
#        223280
#        233272
#        241987
#        253410
#        263792
#        275890
#        288185
#        297802
#        308005
#        318655
#        329490
#
# Disc length: 4513 seconds
#
# Revision: 3
# Processed by: cddbd v1.5.2PL0 Copyright (c) Steve Scherf et al.
# Submitted via: ExactAudioCopyFreeDBPlugin 1.0
#
DISCID=d7119f1e
DTITLE=Willie Nelson - The Early Years
DYEAR=1994
DGENRE=Country
TTITLE0=Night Life
TTITLE1=Rainy Day Blues
TTITLE2=Touch Me
TTITLE3=Wake Me When It's Over
TTITLE4=Hello Walls
TTITLE5=Funny How The Time Slips Away
TTITLE6=Crazy
TTITLE7=The Part Where I Cry
TTITLE8=Mr. Record Man
TTITLE9=Three Days
TTITLE10=One Step Beyond
TTITLE11=Undo The Right
TTITLE12=Darkness On The Face Of The Earth
TTITLE13=Where My House Lives
TTITLE14=How Long Is Forever (Version #1)
TTITLE15=Country Willie
TTITLE16=Go Away
TTITLE17=The Waiting Time
TTITLE18=You Wouldn't Even Cross The Street
TTITLE19=There's Gonna Be Love In My House
TTITLE20=Take My Word (Version #1)
TTITLE21=There Goes A Man
TTITLE22=Willie Nelson and Shirley Collie - Columbus Stockade Blues (Ver
TTITLE22=sion #1)
TTITLE23=Willie Nelson and Shirley Collie - Chain Of Love
TTITLE24=Willie Nelson and Shirley Collie - Willingly
TTITLE25=Willie Nelson and Shirley Collie - Columbus Stockade Blues (Ver
TTITLE25=sion #2)
TTITLE26=Willie Nelson and Shirley Collie - You Dream About Me
TTITLE27=Willie Nelson and Shirley Collie - Is This My Destiny
TTITLE28=Willie Nelson and Shirley Collie - Together
TTITLE29=Willie Nelson and Shirley Collie - Columbus Stockade Blues (Ver
TTITLE29=sion #3)
EXTD=
EXTT0=
EXTT1=
EXTT2=
EXTT3=
EXTT4=
EXTT5=
EXTT6=
EXTT7=
EXTT8=
EXTT9=
EXTT10=
EXTT11=
EXTT12=
EXTT13=
EXTT14=
EXTT15=
EXTT16=
EXTT17=
EXTT18=
EXTT19=
EXTT20=
EXTT21=
EXTT22=
EXTT23=
EXTT24=
EXTT25=
EXTT26=
EXTT27=
EXTT28=
EXTT29=
PLAYORDER=
